<svg xmlns="http://www.w3.org/2000/svg" viewBox="0 0 80 48" role="img" aria-label="DeskPlus">
  <defs>
    <linearGradient id="dp-ticket-h-dark" x1="12" y1="24" x2="68" y2="24" gradientUnits="userSpaceOnUse">
      <stop offset="0" stop-color="#C4B5FD"/>
      <stop offset="1" stop-color="#8B7CF8"/>
    </linearGradient>
    <linearGradient id="dp-fold-h-dark" x1="58" y1="14" x2="68" y2="22" gradientUnits="userSpaceOnUse">
      <stop offset="0" stop-color="#2DD4BF"/>
      <stop offset="1" stop-color="#5EEAD4"/>
    </linearGradient>
  </defs>
  <path fill="url(#dp-ticket-h-dark)" d="M12 18h48c2.21 0 4 1.79 4 4v3.2c-2.21 0-4 1.79-4 4s1.79 4 4 4v3.2c0 2.21-1.79 4-4 4H12c-2.21 0-4-1.79-4-4v-3.2c2.21 0 4-1.79 4-4s-1.79-4-4-4v-3.2c0-2.21 1.79-4 4-4z"/>
  <path fill="url(#dp-fold-h-dark)" d="M56 18h8v8c0 2.21-1.79 4-4 4h-4V22c0-2.21 1.79-4 4-4z"/>
  <rect x="35" y="20" width="10" height="8" rx="1.5" fill="#fff"/>
  <rect x="32" y="23" width="16" height="6" rx="1.5" fill="#fff"/>
</svg>
